<?xml version="1.0" encoding="utf-8"?>
<svg width="100" height="100" xmlns="http://www.w3.org/2000/svg" viewBox="0 0 31.999999 31.999996">
  <defs>
    <svg fill="#black" height="100%" width="100%" viewBox="0 0 31.999999 31.999998" id="1">
      <path
        d="m16.001 1045.4c-0.554 0-1 0.4459-1 1v1c0 0.554 0.446 1 1 1s1-0.446 1-1v-1c0-0.5541-0.446-1-1-1zm7.0703-2.9297c-0.25562 0-0.51116 0.097-0.70703 0.2929-0.39174 0.3917-0.39174 1.0224 0 1.414l0.70703 0.7072c0.39174 0.3916 1.0223 0.3916 1.4141 0 0.39174-0.3919 0.39174-1.0224 0-1.4141l-0.70703-0.7071c-0.19587-0.1958-0.45141-0.2929-0.70703-0.2929zm-14.141 0c-0.25562 0-0.51116 0.097-0.70703 0.2929l-0.70703 0.7071c-0.39174 0.3918-0.39174 1.0223 0 1.4141 0.39173 0.3916 1.0223 0.3916 1.4141 0l0.70703-0.7072c0.39174-0.3916 0.39174-1.0223 0-1.414-0.19587-0.1958-0.45141-0.2929-0.70703-0.2929zm17.07-7.0703c-0.554 0-1 0.4459-1 1 0 0.554 0.446 1 1 1h1c0.554 0 1-0.446 1-1 0-0.5541-0.446-1-1-1h-1zm-21 0c-0.554 0-1 0.4459-1 1 0 0.554 0.446 1 1 1h1c0.554 0 1-0.446 1-1 0-0.5541-0.446-1-1-1h-1zm11-7a8 8 0 0 0 -8 8 8 8 0 0 0 8 8 8 8 0 0 0 8 -8 8 8 0 0 0 -8 -8zm0 2a6 6 0 0 1 6 6 6 6 0 0 1 -6 6 6 6 0 0 1 -6 -6 6 6 0 0 1 6 -6zm7.7773-2.7793c-0.25561 0-0.51116 0.099-0.70703 0.2949l-0.70703 0.7071c-0.39174 0.3917-0.39174 1.0223 0 1.414 0.39174 0.3918 1.0223 0.3918 1.4141 0l0.70703-0.707c0.39174-0.3917 0.39174-1.0223 0-1.4141-0.19586-0.1958-0.45141-0.2949-0.70703-0.2949zm-15.555 0c-0.25562 0-0.51117 0.099-0.70703 0.2949-0.39174 0.3918-0.39174 1.0224 0 1.4141l0.70703 0.707c0.39173 0.3918 1.0223 0.3918 1.4141 0 0.39174-0.3917 0.39174-1.0223 0-1.414l-0.70703-0.7071c-0.19587-0.1958-0.45142-0.2949-0.70703-0.2949zm7.7773-3.2207c-0.554 0-1 0.4459-1 1v1c0 0.554 0.446 1 1 1s1-0.446 1-1v-1c0-0.5541-0.446-1-1-1z"
        transform="translate(0 -1020.4)"/>
    </svg>
    <svg fill="#black" height="64" width="64" viewBox="0 0 31.999999 31.999998" id="2">
      <path
        d="m12 1020.4c-0.554 0-1 0.446-1 1v1c0 0.554 0.446 1 1 1s1-0.446 1-1v-1c0-0.554-0.446-1-1-1zm-7.7773 3.2207c-0.25562 0-0.51117 0.099-0.70703 0.2949-0.39174 0.3918-0.39174 1.0224 0 1.4141l0.70703 0.707c0.39173 0.3918 1.0223 0.3918 1.4141 0 0.39174-0.3917 0.39174-1.0223 0-1.414l-0.70703-0.7071c-0.19587-0.1958-0.45142-0.2949-0.70703-0.2949zm15.555 0c-0.25561 0-0.51116 0.099-0.70703 0.2949l-0.70703 0.7071c-0.39174 0.3917-0.39174 1.0223 0 1.414 0.39174 0.3918 1.0223 0.3918 1.4141 0l0.70704-0.707c0.39173-0.3917 0.39173-1.0223 0-1.4141-0.19587-0.1958-0.45142-0.2949-0.70704-0.2949zm-7.7773 0.7793c-4.4183 0-8 3.5817-8 8 0 2.1312 0.83867 4.0623 2.1973 5.4961-0.12446 0.4813-0.19727 0.9837-0.19727 1.5039 0 3.3137 2.6863 6 6 6h8c4.4183 0 8-3.5817 8-8s-3.5817-8-8-8c-0.19318 0.0001-0.3814 0.025-0.57227 0.039-1.1778-2.9509-4.0566-5.0391-7.4277-5.0391zm0 2c2.3988 0 4.4636 1.4109 5.4238 3.4453-1.839 0.6283-3.4242 1.9003-4.4024 3.6485-0.33719-0.06-0.67893-0.092-1.0215-0.094-2.0062 0-3.7778 0.9876-4.8672 2.5-0.70997-0.9858-1.1328-2.1926-1.1328-3.5001 0-3.3137 2.6863-6 6-6zm-11 5c-0.554 0-1 0.446-1 1s0.446 1 1 1h1c0.554 0 1-0.446 1-1s-0.446-1-1-1h-1zm19 0c3.3137 0 6 2.6863 6 6s-2.6863 6-6 6h-8c-2.2091 0-4-1.7909-4-4s1.7909-4 4-4c0.76723 0 1.5178 0.2242 2.1621 0.6406 0.6316-2.7152 3.0502-4.6378 5.8379-4.6406zm-13.131 4.9043c-0.0178 0.03-0.0374 0.058-0.0547 0.088 0.0174-0.03 0.0368-0.058 0.0547-0.088z"
        transform="translate(0 -1020.4)"/>
    </svg>

    <svg fill="#black" height="64" width="64" viewBox="0 0 31.999999 31.999998" id="3">
      <path
        d="m12 1020.4c-0.554 0-1 0.446-1 1v1c0 0.554 0.446 1 1 1s1-0.446 1-1v-1c0-0.554-0.446-1-1-1zm-7.7773 3.2207c-0.25562 0-0.51117 0.099-0.70703 0.2949-0.39174 0.3918-0.39174 1.0224 0 1.4141l0.70703 0.707c0.39173 0.3918 1.0223 0.3918 1.4141 0 0.39174-0.3917 0.39174-1.0223 0-1.414l-0.70703-0.7071c-0.19587-0.1958-0.45142-0.2949-0.70703-0.2949zm15.555 0c-0.25561 0-0.51116 0.099-0.70703 0.2949l-0.70703 0.7071c-0.39174 0.3917-0.39174 1.0223 0 1.414 0.39174 0.3918 1.0223 0.3918 1.4141 0l0.70704-0.707c0.39173-0.3917 0.39173-1.0223 0-1.4141-0.19587-0.1958-0.45142-0.2949-0.70704-0.2949zm-7.7773 0.7793c-4.4183 0-8 3.5817-8 8 0 1.5899 0.4699 3.0672 1.2695 4.3125-0.79632 1.0202-1.2693 2.3012-1.2695 3.6875 0 3.3137 2.6863 6 6 6h15.5c3.5898 0 6.5-2.9101 6.5-6.5 0-3.5898-2.9102-6.5-6.5-6.5-0.49867 0-0.99543 0.062-1.4805 0.1777-0.97236-1.7878-2.5764-3.091-4.4434-3.7304-1.0664-3.1648-4.0518-5.4473-7.5762-5.4473zm0 2c2.2253 0 4.1633 1.2143 5.1992 3.0137-0.067 0-0.13195-0.014-0.19922-0.014-3.2637 0-6.1985 1.9875-7.416 5.0156-1.0334 0.072-1.9871 0.4063-2.8066 0.9297-0.49216-0.8707-0.77734-1.8738-0.77734-2.9453 0-3.3137 2.6863-6 6-6zm-11 5c-0.554 0-1 0.446-1 1s0.446 1 1 1h1c0.554 0 1-0.446 1-1s-0.446-1-1-1zm16 0c2.8668 0 5.3313 2.0325 5.8828 4.8457 0.76276-0.5481 1.6779-0.8438 2.6172-0.8457 2.4853 0 4.5 2.0147 4.5 4.5s-2.0147 4.5-4.5 4.5h-15.5c-2.2091 0-4-1.7909-4-4s1.7909-4 4-4c0.36119 0 0.72057 0.051 1.0684 0.1484 0.4232-2.9516 2.9498-5.1446 5.9316-5.1484z"
        transform="translate(0 -1020.4)"/>
    </svg>
    <svg fill="#black" height="64" width="64" viewBox="0 0 31.999999 31.999998" id="4">
      <path
        d="m12 1020.4c-0.554 0-1 0.446-1 1v1c0 0.554 0.446 1 1 1s1-0.446 1-1v-1c0-0.554-0.446-1-1-1zm-7.7773 3.2207c-0.25562 0-0.51117 0.099-0.70703 0.2949-0.39174 0.3918-0.39174 1.0224 0 1.4141l0.70703 0.707c0.39173 0.3918 1.0223 0.3918 1.4141 0 0.39174-0.3917 0.39174-1.0223 0-1.414l-0.70703-0.7071c-0.19587-0.1958-0.45142-0.2949-0.70703-0.2949zm15.555 0c-0.25561 0-0.51116 0.099-0.70703 0.2949l-0.70703 0.7071c-0.39174 0.3917-0.39174 1.0223 0 1.414 0.39174 0.3918 1.0223 0.3918 1.4141 0l0.70704-0.707c0.39173-0.3917 0.39173-1.0223 0-1.4141-0.19587-0.1958-0.45142-0.2949-0.70704-0.2949zm-7.7773 0.7793c-4.4183 0-8 3.5817-8 8 0 1.5899 0.4699 3.0672 1.2695 4.3125-0.79632 1.0202-1.2693 2.3012-1.2695 3.6875 0 3.3137 2.6863 6 6 6h15.5c3.5898 0 6.5-2.9101 6.5-6.5 0-3.5898-2.9102-6.5-6.5-6.5-0.49867 0-0.99543 0.062-1.4805 0.1777-0.97236-1.7878-2.5764-3.091-4.4434-3.7304-1.0664-3.1648-4.0518-5.4473-7.5762-5.4473zm0 2c2.2253 0 4.1633 1.2143 5.1992 3.0137-0.067 0-0.13195-0.014-0.19922-0.014-3.2637 0-6.1985 1.9875-7.416 5.0156-1.0334 0.072-1.9871 0.4063-2.8066 0.9297-0.49216-0.8707-0.77734-1.8738-0.77734-2.9453 0-3.3137 2.6863-6 6-6zm-11 5c-0.554 0-1 0.446-1 1s0.446 1 1 1h1c0.554 0 1-0.446 1-1s-0.446-1-1-1zm16 0c2.8668 0 5.3313 2.0325 5.8828 4.8457 0.76276-0.5481 1.6779-0.8438 2.6172-0.8457 2.4853 0 4.5 2.0147 4.5 4.5s-2.0147 4.5-4.5 4.5h-15.5c-2.2091 0-4-1.7909-4-4s1.7909-4 4-4c0.36119 0 0.72057 0.051 1.0684 0.1484 0.4232-2.9516 2.9498-5.1446 5.9316-5.1484z"
        transform="translate(0 -1020.4)"/>
    </svg>
    <svg fill="#black" height="64" width="64" viewBox="0 0 31.999998 31.999999" id="5">
      <path
        d="m15 1027.4c-3.2637 0-6.1985 1.9876-7.416 5.0156-3.1442 0.2186-5.5834 2.8326-5.584 5.9844 0 3.3137 2.6863 6 6 6h15.5c3.5898 0 6.5-2.9101 6.5-6.5 0-3.5898-2.9102-6.5-6.5-6.5-0.49867 0-0.99543 0.062-1.4805 0.1777-1.399-2.5722-4.0915-4.1747-7.0195-4.1777zm0 2c2.8668 0 5.3313 2.0325 5.8828 4.8457 0.76276-0.5481 1.6779-0.8438 2.6172-0.8457 2.4853 0 4.5 2.0147 4.5 4.5s-2.0147 4.5-4.5 4.5h-15.5c-2.2091 0-4-1.7909-4-4s1.7909-4 4-4c0.36119 0.001 0.72057 0.051 1.0684 0.1484 0.4232-2.9516 2.9498-5.1446 5.9316-5.1484z"
        transform="translate(0 -1020.4)"/>
    </svg>
    <svg fill="#black" height="64" width="64" viewBox="0 0 31.999999 31.999998" id="6">
      <path
        d="m18 1025.4c-3.0799 0-5.7489 1.744-7.0859 4.295-2.3808 0.6468-4.3803 2.3585-5.3301 4.7207-3.1442 0.2185-5.5834 2.8326-5.584 5.9843 0 3.3138 2.6863 6 6 6h15.5c3.1818 0 5.8239-2.2873 6.3848-5.3066 2.3897-0.7906 4.1152-3.0385 4.1152-5.6934 0-3.3137-2.6863-6-6-6-0.34255 0-0.68429 0.033-1.0215 0.094-1.4139-2.5269-4.0829-4.0927-6.9785-4.0937zm0 2c2.7877 0 5.2063 1.9254 5.8379 4.6407 0.64435-0.4165 1.3949-0.6386 2.1621-0.6407 2.2091 0 4 1.7909 4 4 0 1.5118-0.84848 2.8121-2.0859 3.4922-0.48535-3.11-3.1679-5.4922-6.4141-5.4922-0.49867 0-0.99543 0.062-1.4805 0.1778-1.3174-2.4222-3.7857-3.966-6.5137-4.1426 1.0994-1.2449 2.7027-2.0352 4.4941-2.0352zm-5 4c2.8668 0 5.3313 2.0326 5.8828 4.8458 0.76276-0.5482 1.6779-0.8439 2.6172-0.8458 2.4853 0 4.5 2.0148 4.5 4.5 0 2.4853-2.0147 4.5-4.5 4.5h-15.5c-2.2091 0-4-1.7908-4-4 0-2.2091 1.7909-4 4-4 0.36119 0.001 0.72057 0.051 1.0684 0.1485 0.4232-2.9517 2.9498-5.1447 5.9316-5.1485z"
        transform="translate(0 -1020.4)"/>
    </svg>
    <svg fill="#black" height="64" width="64" viewBox="0 0 31.999999 31.999998" id="7">
      <path
        d="m 5.0002,1029.4 c -0.554,0 -1,0.446 -1,1 0,0.554 0.446,1 1,1 l 22,0 c 0.554,0 1,-0.446 1,-1 0,-0.554 -0.446,-1 -1,-1 l -22,0 z m 0,4 c -0.554,0 -1,0.446 -1,1 0,0.554 0.446,1 1,1 l 22,0 c 0.554,0 1,-0.446 1,-1 0,-0.554 -0.446,-1 -1,-1 l -22,0 z m 0,4 c -0.554,0 -1,0.446 -1,1 0,0.554 0.446,1 1,1 l 22,0 c 0.554,0 1,-0.446 1,-1 0,-0.554 -0.446,-1 -1,-1 l -22,0 z m 0,4 c -0.554,0 -1,0.446 -1,1 0,0.554 0.446,1 1,1 l 22,0 c 0.554,0 1,-0.446 1,-1 0,-0.554 -0.446,-1 -1,-1 l -22,0 z"
        transform="translate(0 -1021.4)"/>
    </svg>
    <svg fill="#black" height="64" width="64" viewBox="0 0 31.999999 31.999998" id="8">
      <path
        d="m12 1020.4c-0.554 0-1 0.446-1 1v1c0 0.554 0.446 1 1 1s1-0.446 1-1v-1c0-0.554-0.446-1-1-1zm-7.7773 3.2207c-0.25562 0-0.51118 0.099-0.70703 0.2949-0.39174 0.3918-0.39174 1.0224 0 1.4141l0.70703 0.707c0.39173 0.3918 1.0223 0.3918 1.4141 0 0.39174-0.3917 0.39174-1.0223 0-1.414l-0.70703-0.7071c-0.19587-0.1958-0.45142-0.2949-0.70703-0.2949zm15.555 0c-0.25561 0-0.51116 0.099-0.70703 0.2949l-0.70703 0.7071c-0.39174 0.3917-0.39174 1.0223 0 1.414 0.39174 0.3918 1.0223 0.3918 1.4141 0l0.70704-0.707c0.39174-0.3917 0.39174-1.0223 0-1.4141-0.19586-0.1958-0.45142-0.2949-0.70704-0.2949zm-7.7773 0.7793c-4.4183 0-8 3.5817-8 8 0.003 1.5286 0.44322 3.0245 1.2695 4.3106-0.79688 1.0203-1.2693 2.3026-1.2695 3.6894 0 3.1616 2.4483 5.7416 5.5508 5.9727l1.1387-1.9727h-0.68945c-2.2091 0-4-1.7908-4-4 0-2.2091 1.7909-4 4-4 0.36119 0 0.72057 0.051 1.0684 0.1485 0.4232-2.9517 2.9498-5.1447 5.9316-5.1485 2.8668 0 5.3313 2.0325 5.8828 4.8457 0.76276-0.5481 1.6779-0.8438 2.6172-0.8457 2.4853 0 4.5 2.0147 4.5 4.5s-2.0147 4.5-4.5 4.5h-0.5l-1.1523 2h1.6523c3.5898 0 6.5-2.9101 6.5-6.5 0-3.5898-2.9102-6.5-6.5-6.5-0.49867 0-0.99543 0.062-1.4805 0.1777-0.97267-1.7883-2.5777-3.0912-4.4453-3.7304-1.095-3.2524-4.1424-5.444-7.5742-5.4473zm0 2c2.1461 0 4.1271 1.1523 5.1953 3.0137-0.0657 0-0.12936-0.014-0.19531-0.014-3.2637 0-6.1985 1.9875-7.416 5.0156-1.0325 0.072-1.9856 0.4052-2.8047 0.9277-0.50853-0.8977-0.77694-1.9115-0.7793-2.9433 0-3.3137 2.6863-6 6-6zm-11 5c-0.554 0-1 0.446-1 1s0.446 1 1 1h1c0.554 0 1-0.446 1-1s-0.446-1-1-1h-1zm14.123 10.008c-0.38674-0.049-0.78249 0.1324-0.99024 0.4922l-4.0391 6.9961c-0.27699 0.4798-0.11454 1.0921 0.36523 1.3691 0.47978 0.277 1.0902 0.1107 1.3672-0.3691l4.0391-6.9961c0.277-0.4798 0.11455-1.0882-0.36523-1.3652-0.11994-0.069-0.24804-0.1108-0.37695-0.127zm4 0c-0.38674-0.049-0.78249 0.1324-0.99024 0.4922l-4.0391 6.9961c-0.277 0.4798-0.11454 1.0921 0.36523 1.3691 0.47978 0.277 1.0902 0.1107 1.3672-0.3691l4.0391-6.9961c0.277-0.4798 0.11455-1.0882-0.36523-1.3652-0.11995-0.069-0.24804-0.1108-0.37695-0.127zm4 0c-0.38674-0.049-0.78249 0.1324-0.99024 0.4922l-4.0391 6.9961c-0.277 0.4798-0.11454 1.0921 0.36523 1.3691 0.47978 0.277 1.0902 0.1107 1.3672-0.3691l4.0391-6.9961c0.277-0.4798 0.11455-1.0882-0.36523-1.3652-0.11995-0.069-0.24804-0.1108-0.37695-0.127z"
        transform="translate(0 -1020.4)"/>
    </svg>
    <svg fill="#black" height="64" width="64" viewBox="0 0 31.999999 31.999998" id="9">
      <path
        d="m12 1020.4c-0.554 0-1 0.446-1 1v1c0 0.554 0.446 1 1 1s1-0.446 1-1v-1c0-0.554-0.446-1-1-1zm-7.7773 3.2207c-0.25562 0-0.51118 0.099-0.70703 0.2949-0.39174 0.3918-0.39174 1.0224 0 1.4141l0.70703 0.707c0.39173 0.3918 1.0223 0.3918 1.4141 0 0.39174-0.3917 0.39174-1.0223 0-1.414l-0.70703-0.7071c-0.19587-0.1958-0.45142-0.2949-0.70703-0.2949zm15.555 0c-0.25561 0-0.51116 0.099-0.70703 0.2949l-0.70703 0.7071c-0.39174 0.3917-0.39174 1.0223 0 1.414 0.39174 0.3918 1.0223 0.3918 1.4141 0l0.70704-0.707c0.39174-0.3917 0.39174-1.0223 0-1.4141-0.19586-0.1958-0.45142-0.2949-0.70704-0.2949zm-7.7773 0.7793c-4.4183 0-8 3.5817-8 8 0.003 1.5286 0.44322 3.0245 1.2695 4.3106-0.79688 1.0203-1.2693 2.3026-1.2695 3.6894 0 3.1616 2.4483 5.7416 5.5508 5.9727l1.1387-1.9727h-0.68945c-2.2091 0-4-1.7908-4-4 0-2.2091 1.7909-4 4-4 0.36119 0 0.72057 0.051 1.0684 0.1485 0.4232-2.9517 2.9498-5.1447 5.9316-5.1485 2.8668 0 5.3313 2.0325 5.8828 4.8457 0.76276-0.5481 1.6779-0.8438 2.6172-0.8457 2.4853 0 4.5 2.0147 4.5 4.5s-2.0147 4.5-4.5 4.5h-0.5l-1.1523 2h1.6523c3.5898 0 6.5-2.9101 6.5-6.5 0-3.5898-2.9102-6.5-6.5-6.5-0.49867 0-0.99543 0.062-1.4805 0.1777-0.97267-1.7883-2.5777-3.0912-4.4453-3.7304-1.095-3.2524-4.1424-5.444-7.5742-5.4473zm0 2c2.1461 0 4.1271 1.1523 5.1953 3.0137-0.0657 0-0.12936-0.014-0.19531-0.014-3.2637 0-6.1985 1.9875-7.416 5.0156-1.0325 0.072-1.9856 0.4052-2.8047 0.9277-0.50853-0.8977-0.77694-1.9115-0.7793-2.9433 0-3.3137 2.6863-6 6-6zm-11 5c-0.554 0-1 0.446-1 1s0.446 1 1 1h1c0.554 0 1-0.446 1-1s-0.446-1-1-1h-1zm14.123 10.008c-0.38674-0.049-0.78249 0.1324-0.99024 0.4922l-4.0391 6.9961c-0.27699 0.4798-0.11454 1.0921 0.36523 1.3691 0.47978 0.277 1.0902 0.1107 1.3672-0.3691l4.0391-6.9961c0.277-0.4798 0.11455-1.0882-0.36523-1.3652-0.11994-0.069-0.24804-0.1108-0.37695-0.127zm4 0c-0.38674-0.049-0.78249 0.1324-0.99024 0.4922l-4.0391 6.9961c-0.277 0.4798-0.11454 1.0921 0.36523 1.3691 0.47978 0.277 1.0902 0.1107 1.3672-0.3691l4.0391-6.9961c0.277-0.4798 0.11455-1.0882-0.36523-1.3652-0.11995-0.069-0.24804-0.1108-0.37695-0.127zm4 0c-0.38674-0.049-0.78249 0.1324-0.99024 0.4922l-4.0391 6.9961c-0.277 0.4798-0.11454 1.0921 0.36523 1.3691 0.47978 0.277 1.0902 0.1107 1.3672-0.3691l4.0391-6.9961c0.277-0.4798 0.11455-1.0882-0.36523-1.3652-0.11995-0.069-0.24804-0.1108-0.37695-0.127z"
        transform="translate(0 -1020.4)"/>
    </svg>
    <svg fill="#black" height="64" width="64" viewBox="0 0 31.999999 31.999998" id="10">
      <path
        d="m12 1020.4c-0.554 0-1 0.446-1 1v1c0 0.554 0.446 1 1 1s1-0.446 1-1v-1c0-0.554-0.446-1-1-1zm-7.7773 3.2207c-0.25562 0-0.51118 0.099-0.70703 0.2949-0.39174 0.3918-0.39174 1.0224 0 1.4141l0.70703 0.707c0.39173 0.3918 1.0223 0.3918 1.4141 0 0.39174-0.3917 0.39174-1.0223 0-1.414l-0.70703-0.7071c-0.19587-0.1958-0.45142-0.2949-0.70703-0.2949zm15.555 0c-0.25561 0-0.51116 0.099-0.70703 0.2949l-0.70703 0.7071c-0.39174 0.3917-0.39174 1.0223 0 1.414 0.39174 0.3918 1.0223 0.3918 1.4141 0l0.70704-0.707c0.39174-0.3917 0.39174-1.0223 0-1.4141-0.19586-0.1958-0.45142-0.2949-0.70704-0.2949zm-7.7773 0.7793c-4.4183 0-8 3.5817-8 8 0.003 1.5286 0.44322 3.0245 1.2695 4.3106-0.79688 1.0203-1.2693 2.3026-1.2695 3.6894 0 3.1616 2.4483 5.7416 5.5508 5.9727l1.1387-1.9727h-0.68945c-2.2091 0-4-1.7908-4-4 0-2.2091 1.7909-4 4-4 0.36119 0 0.72057 0.051 1.0684 0.1485 0.4232-2.9517 2.9498-5.1447 5.9316-5.1485 2.8668 0 5.3313 2.0325 5.8828 4.8457 0.76276-0.5481 1.6779-0.8438 2.6172-0.8457 2.4853 0 4.5 2.0147 4.5 4.5s-2.0147 4.5-4.5 4.5h-0.5l-1.1523 2h1.6523c3.5898 0 6.5-2.9101 6.5-6.5 0-3.5898-2.9102-6.5-6.5-6.5-0.49867 0-0.99543 0.062-1.4805 0.1777-0.97267-1.7883-2.5777-3.0912-4.4453-3.7304-1.095-3.2524-4.1424-5.444-7.5742-5.4473zm0 2c2.1461 0 4.1271 1.1523 5.1953 3.0137-0.0657 0-0.12936-0.014-0.19531-0.014-3.2637 0-6.1985 1.9875-7.416 5.0156-1.0325 0.072-1.9856 0.4052-2.8047 0.9277-0.50853-0.8977-0.77694-1.9115-0.7793-2.9433 0-3.3137 2.6863-6 6-6zm-11 5c-0.554 0-1 0.446-1 1s0.446 1 1 1h1c0.554 0 1-0.446 1-1s-0.446-1-1-1h-1zm14.123 10.008c-0.38674-0.049-0.78249 0.1324-0.99024 0.4922l-4.0391 6.9961c-0.27699 0.4798-0.11454 1.0921 0.36523 1.3691 0.47978 0.277 1.0902 0.1107 1.3672-0.3691l4.0391-6.9961c0.277-0.4798 0.11455-1.0882-0.36523-1.3652-0.11994-0.069-0.24804-0.1108-0.37695-0.127zm4 0c-0.38674-0.049-0.78249 0.1324-0.99024 0.4922l-4.0391 6.9961c-0.277 0.4798-0.11454 1.0921 0.36523 1.3691 0.47978 0.277 1.0902 0.1107 1.3672-0.3691l4.0391-6.9961c0.277-0.4798 0.11455-1.0882-0.36523-1.3652-0.11995-0.069-0.24804-0.1108-0.37695-0.127zm4 0c-0.38674-0.049-0.78249 0.1324-0.99024 0.4922l-4.0391 6.9961c-0.277 0.4798-0.11454 1.0921 0.36523 1.3691 0.47978 0.277 1.0902 0.1107 1.3672-0.3691l4.0391-6.9961c0.277-0.4798 0.11455-1.0882-0.36523-1.3652-0.11995-0.069-0.24804-0.1108-0.37695-0.127z"
        transform="translate(0 -1020.4)"/>
    </svg>
    <svg fill="#black" height="64" width="64" viewBox="0 0 31.999999 31.999998"
         id="11">
      <path
        d="m15 1027.4c-3.2637 0-6.1985 1.9876-7.416 5.0156-3.1442 0.2186-5.5834 2.8326-5.584 5.9844 0 3.1615 2.4483 5.7416 5.5508 5.9727l1.1387-1.9727h-0.68945c-2.2091 0-4-1.7909-4-4s1.7909-4 4-4c0.36119 0.001 0.72057 0.051 1.0684 0.1484 0.4232-2.9516 2.9498-5.1446 5.9316-5.1484 2.8668 0 5.3313 2.0325 5.8828 4.8457 0.76276-0.5481 1.6779-0.8438 2.6172-0.8457 2.4853 0 4.5 2.0147 4.5 4.5s-2.0147 4.5-4.5 4.5h-0.5l-1.1523 2h1.6523c3.5898 0 6.5-2.9101 6.5-6.5 0-3.5898-2.9102-6.5-6.5-6.5-0.49867 0-0.99543 0.062-1.4805 0.1777-1.399-2.5722-4.0915-4.1747-7.0195-4.1777zm-1 11-2 6h2l-1 5 5-7h-3l2-4z"
        transform="translate(0 -1020.4)"/>
    </svg>
    <svg fill="#black" height="64" width="64" viewBox="0 0 31.999999 31.999998"
         id="12">
      <path
        d="m18.5 1038.4c-0.277 0-0.5 0.446-0.5 1v1.293l-0.91406-0.9141c-0.39174-0.3917-0.86468-0.5494-1.0606-0.3535-0.19587 0.1959-0.0382 0.6688 0.35352 1.0605l0.91406 0.9141h-1.293c-0.554 0-1 0.223-1 0.5s0.446 0.5 1 0.5h1.293l-0.91406 0.9141c-0.39174 0.3917-0.54939 0.8646-0.35352 1.0605s0.66881 0.038 1.0606-0.3535l0.91406-0.9141v1.293c0 0.554 0.223 1 0.5 1s0.5-0.446 0.5-1v-1.293l0.91406 0.9141c0.39174 0.3917 0.86468 0.5494 1.0606 0.3535 0.19587-0.1959 0.0382-0.6688-0.35352-1.0605l-0.91406-0.9141h1.293c0.554 0 1-0.223 1-0.5s-0.446-0.5-1-0.5h-1.293l0.91406-0.9141c0.39174-0.3917 0.54939-0.8646 0.35352-1.0605s-0.66881-0.038-1.0606 0.3535l-0.91406 0.9141v-1.293c0-0.554-0.223-1-0.5-1zm-6.5 2s-3 4.3432-3 6c0 1.6569 1.3432 3 3 3s3-1.3431 3-3c0-1.6568-3-6-3-6zm0 3s1 2.4477 1 3-0.44772 1-1 1-1-0.4477-1-1 1-3 1-3zm3-16c-3.2637 0-6.1985 1.9876-7.416 5.0156-3.1442 0.2186-5.5834 2.8326-5.584 5.9844 0 3.1615 2.4483 5.7416 5.5508 5.9727l1.1387-1.9727h-0.68945c-2.2091 0-4-1.7909-4-4s1.7909-4 4-4c0.36119 0.001 0.72057 0.051 1.0684 0.1484 0.4232-2.9516 2.9498-5.1446 5.9316-5.1484 2.8668 0 5.3313 2.0325 5.8828 4.8457 0.76276-0.5481 1.6779-0.8438 2.6172-0.8457 2.4853 0 4.5 2.0147 4.5 4.5s-2.0147 4.5-4.5 4.5h-0.5l-1.1523 2h1.6523c3.5898 0 6.5-2.9101 6.5-6.5 0-3.5898-2.9102-6.5-6.5-6.5-0.49867 0-0.99543 0.062-1.4805 0.1777-1.399-2.5722-4.0915-4.1747-7.0195-4.1777z"
        transform="translate(0 -1020.4)"/>
    </svg>
    <svg fill="#black" height="64" width="64" viewBox="0 0 31.999999 31.999998"
         id="13">
      <path
        d="m18.5 1038.4c-0.277 0-0.5 0.446-0.5 1v1.293l-0.91406-0.9141c-0.39174-0.3917-0.86468-0.5494-1.0606-0.3535-0.19587 0.1959-0.0382 0.6688 0.35352 1.0605l0.91406 0.9141h-1.293c-0.554 0-1 0.223-1 0.5s0.446 0.5 1 0.5h1.293l-0.91406 0.9141c-0.39174 0.3917-0.54939 0.8646-0.35352 1.0605s0.66881 0.038 1.0606-0.3535l0.91406-0.9141v1.293c0 0.554 0.223 1 0.5 1s0.5-0.446 0.5-1v-1.293l0.91406 0.9141c0.39174 0.3917 0.86468 0.5494 1.0606 0.3535 0.19587-0.1959 0.0382-0.6688-0.35352-1.0605l-0.91406-0.9141h1.293c0.554 0 1-0.223 1-0.5s-0.446-0.5-1-0.5h-1.293l0.91406-0.9141c0.39174-0.3917 0.54939-0.8646 0.35352-1.0605s-0.66881-0.038-1.0606 0.3535l-0.91406 0.9141v-1.293c0-0.554-0.223-1-0.5-1zm-6.5 2s-3 4.3432-3 6c0 1.6569 1.3432 3 3 3s3-1.3431 3-3c0-1.6568-3-6-3-6zm0 3s1 2.4477 1 3-0.44772 1-1 1-1-0.4477-1-1 1-3 1-3zm3-16c-3.2637 0-6.1985 1.9876-7.416 5.0156-3.1442 0.2186-5.5834 2.8326-5.584 5.9844 0 3.1615 2.4483 5.7416 5.5508 5.9727l1.1387-1.9727h-0.68945c-2.2091 0-4-1.7909-4-4s1.7909-4 4-4c0.36119 0.001 0.72057 0.051 1.0684 0.1484 0.4232-2.9516 2.9498-5.1446 5.9316-5.1484 2.8668 0 5.3313 2.0325 5.8828 4.8457 0.76276-0.5481 1.6779-0.8438 2.6172-0.8457 2.4853 0 4.5 2.0147 4.5 4.5s-2.0147 4.5-4.5 4.5h-0.5l-1.1523 2h1.6523c3.5898 0 6.5-2.9101 6.5-6.5 0-3.5898-2.9102-6.5-6.5-6.5-0.49867 0-0.99543 0.062-1.4805 0.1777-1.399-2.5722-4.0915-4.1747-7.0195-4.1777z"
        transform="translate(0 -1020.4)"/>
    </svg>
    <svg fill="#black" height="64" width="64" viewBox="0 0 31.999999 31.999998"
         id="14">
      <path
        d="m18.5 1038.4c-0.277 0-0.5 0.446-0.5 1v1.293l-0.91406-0.9141c-0.39174-0.3917-0.86468-0.5494-1.0606-0.3535-0.19587 0.1959-0.0382 0.6688 0.35352 1.0605l0.91406 0.9141h-1.293c-0.554 0-1 0.223-1 0.5s0.446 0.5 1 0.5h1.293l-0.91406 0.9141c-0.39174 0.3917-0.54939 0.8646-0.35352 1.0605s0.66881 0.038 1.0606-0.3535l0.91406-0.9141v1.293c0 0.554 0.223 1 0.5 1s0.5-0.446 0.5-1v-1.293l0.91406 0.9141c0.39174 0.3917 0.86468 0.5494 1.0606 0.3535 0.19587-0.1959 0.0382-0.6688-0.35352-1.0605l-0.91406-0.9141h1.293c0.554 0 1-0.223 1-0.5s-0.446-0.5-1-0.5h-1.293l0.91406-0.9141c0.39174-0.3917 0.54939-0.8646 0.35352-1.0605s-0.66881-0.038-1.0606 0.3535l-0.91406 0.9141v-1.293c0-0.554-0.223-1-0.5-1zm-6.5 2s-3 4.3432-3 6c0 1.6569 1.3432 3 3 3s3-1.3431 3-3c0-1.6568-3-6-3-6zm0 3s1 2.4477 1 3-0.44772 1-1 1-1-0.4477-1-1 1-3 1-3zm3-16c-3.2637 0-6.1985 1.9876-7.416 5.0156-3.1442 0.2186-5.5834 2.8326-5.584 5.9844 0 3.1615 2.4483 5.7416 5.5508 5.9727l1.1387-1.9727h-0.68945c-2.2091 0-4-1.7909-4-4s1.7909-4 4-4c0.36119 0.001 0.72057 0.051 1.0684 0.1484 0.4232-2.9516 2.9498-5.1446 5.9316-5.1484 2.8668 0 5.3313 2.0325 5.8828 4.8457 0.76276-0.5481 1.6779-0.8438 2.6172-0.8457 2.4853 0 4.5 2.0147 4.5 4.5s-2.0147 4.5-4.5 4.5h-0.5l-1.1523 2h1.6523c3.5898 0 6.5-2.9101 6.5-6.5 0-3.5898-2.9102-6.5-6.5-6.5-0.49867 0-0.99543 0.062-1.4805 0.1777-1.399-2.5722-4.0915-4.1747-7.0195-4.1777z"
        transform="translate(0 -1020.4)"/>
    </svg>
    <svg fill="#black" height="64" width="64" viewBox="0 0 31.999999 31.999998"
         id="15">
      <path
        d="m16.5 1044.4c-0.277 0-0.5 0.446-0.5 1v0.293l-0.20703-0.2071c-0.39174-0.3917-0.86468-0.5493-1.0606-0.3535-0.19587 0.1959-0.0382 0.6688 0.35352 1.0606l0.20703 0.207h-0.29297c-0.554 0-1 0.223-1 0.5s0.446 0.5 1 0.5h0.29297l-0.20703 0.207c-0.39174 0.3918-0.54939 0.8647-0.35352 1.0606s0.66881 0.038 1.0606-0.3535l0.20703-0.2071v0.293c0 0.554 0.223 1 0.5 1s0.5-0.446 0.5-1v-0.293l0.20703 0.2071c0.39174 0.3917 0.86468 0.5494 1.0606 0.3535 0.19587-0.1959 0.0382-0.6688-0.35352-1.0606l-0.20703-0.207h0.29297c0.554 0 1-0.223 1-0.5s-0.446-0.5-1-0.5h-0.29297l0.20703-0.207c0.39174-0.3918 0.54939-0.8647 0.35352-1.0606-0.19587-0.1958-0.66881-0.038-1.0606 0.3535l-0.20703 0.2071v-0.293c0-0.554-0.223-1-0.5-1zm-6 0c-0.277 0-0.5 0.446-0.5 1v0.293l-0.20703-0.2071c-0.39174-0.3917-0.86468-0.5493-1.0606-0.3535-0.19587 0.1959-0.0382 0.6688 0.35352 1.0606l0.20703 0.207h-0.29297c-0.554 0-1 0.223-1 0.5s0.446 0.5 1 0.5h0.29297l-0.20703 0.207c-0.39174 0.3918-0.54939 0.8647-0.35352 1.0606s0.66881 0.038 1.0606-0.3535l0.20703-0.2071v0.293c0 0.554 0.223 1 0.5 1s0.5-0.446 0.5-1v-0.293l0.20703 0.2071c0.39174 0.3917 0.86468 0.5494 1.0606 0.3535 0.19587-0.1959 0.0382-0.6688-0.35352-1.0606l-0.20703-0.207h0.29297c0.554 0 1-0.223 1-0.5s-0.446-0.5-1-0.5h-0.29297l0.20703-0.207c0.39174-0.3918 0.54939-0.8647 0.35352-1.0606-0.19587-0.1958-0.66881-0.038-1.0606 0.3535l-0.20703 0.2071v-0.293c0-0.554-0.223-1-0.5-1zm8-5c-0.277 0-0.5 0.446-0.5 1v0.293l-0.20703-0.2071c-0.39174-0.3917-0.86468-0.5493-1.0606-0.3535-0.19587 0.1959-0.0382 0.6688 0.35352 1.0606l0.20703 0.207h-0.29297c-0.554 0-1 0.223-1 0.5s0.446 0.5 1 0.5h0.29297l-0.20703 0.207c-0.39174 0.3918-0.54939 0.8647-0.35352 1.0606s0.66881 0.038 1.0606-0.3535l0.20703-0.2071v0.293c0 0.554 0.223 1 0.5 1s0.5-0.446 0.5-1v-0.293l0.20703 0.2071c0.39174 0.3917 0.86468 0.5494 1.0606 0.3535 0.19587-0.1959 0.0382-0.6688-0.35352-1.0606l-0.20703-0.207h0.29297c0.554 0 1-0.223 1-0.5s-0.446-0.5-1-0.5h-0.29297l0.20703-0.207c0.39174-0.3918 0.54939-0.8647 0.35352-1.0606-0.19587-0.1958-0.66881-0.038-1.0606 0.3535l-0.20703 0.2071v-0.293c0-0.554-0.223-1-0.5-1zm-6 0c-0.277 0-0.5 0.446-0.5 1v0.293l-0.20703-0.2071c-0.39174-0.3917-0.86468-0.5493-1.0606-0.3535-0.19587 0.1959-0.0382 0.6688 0.35352 1.0606l0.20703 0.207h-0.29297c-0.554 0-1 0.223-1 0.5s0.446 0.5 1 0.5h0.29297l-0.20703 0.207c-0.39174 0.3918-0.54939 0.8647-0.35352 1.0606s0.66881 0.038 1.0606-0.3535l0.20703-0.2071v0.293c0 0.554 0.223 1 0.5 1s0.5-0.446 0.5-1v-0.293l0.20703 0.2071c0.39174 0.3917 0.86468 0.5494 1.0606 0.3535 0.19587-0.1959 0.0382-0.6688-0.35352-1.0606l-0.20703-0.207h0.29297c0.554 0 1-0.223 1-0.5s-0.446-0.5-1-0.5h-0.29297l0.20703-0.207c0.39174-0.3918 0.54939-0.8647 0.35352-1.0606-0.19587-0.1958-0.66881-0.038-1.0606 0.3535l-0.20703 0.2071v-0.293c0-0.554-0.223-1-0.5-1zm2.5-12c-3.2637 0-6.1985 1.9876-7.416 5.0156-3.1442 0.2186-5.5834 2.8326-5.584 5.9844 0 3.1615 2.4483 5.7416 5.5508 5.9727l1.1387-1.9727h-0.68945c-2.2091 0-4-1.7909-4-4s1.7909-4 4-4c0.36119 0.001 0.72057 0.051 1.0684 0.1484 0.4232-2.9516 2.9498-5.1446 5.9316-5.1484 2.8668 0 5.3313 2.0325 5.8828 4.8457 0.76276-0.5481 1.6779-0.8438 2.6172-0.8457 2.4853 0 4.5 2.0147 4.5 4.5s-2.0147 4.5-4.5 4.5h-0.5l-1.1523 2h1.6523c3.5898 0 6.5-2.9101 6.5-6.5 0-3.5898-2.9102-6.5-6.5-6.5-0.49867 0-0.99543 0.062-1.4805 0.1777-1.399-2.5722-4.0915-4.1747-7.0195-4.1777z"
        transform="translate(0 -1020.4)"/>
    </svg>
    <svg fill="#black" height="64" width="64" viewBox="0 0 31.999999 31.999998"
         id="16">
      <path
        d="m16.5 1044.4c-0.277 0-0.5 0.446-0.5 1v0.293l-0.20703-0.2071c-0.39174-0.3917-0.86468-0.5493-1.0606-0.3535-0.19587 0.1959-0.0382 0.6688 0.35352 1.0606l0.20703 0.207h-0.29297c-0.554 0-1 0.223-1 0.5s0.446 0.5 1 0.5h0.29297l-0.20703 0.207c-0.39174 0.3918-0.54939 0.8647-0.35352 1.0606s0.66881 0.038 1.0606-0.3535l0.20703-0.2071v0.293c0 0.554 0.223 1 0.5 1s0.5-0.446 0.5-1v-0.293l0.20703 0.2071c0.39174 0.3917 0.86468 0.5494 1.0606 0.3535 0.19587-0.1959 0.0382-0.6688-0.35352-1.0606l-0.20703-0.207h0.29297c0.554 0 1-0.223 1-0.5s-0.446-0.5-1-0.5h-0.29297l0.20703-0.207c0.39174-0.3918 0.54939-0.8647 0.35352-1.0606-0.19587-0.1958-0.66881-0.038-1.0606 0.3535l-0.20703 0.2071v-0.293c0-0.554-0.223-1-0.5-1zm-6 0c-0.277 0-0.5 0.446-0.5 1v0.293l-0.20703-0.2071c-0.39174-0.3917-0.86468-0.5493-1.0606-0.3535-0.19587 0.1959-0.0382 0.6688 0.35352 1.0606l0.20703 0.207h-0.29297c-0.554 0-1 0.223-1 0.5s0.446 0.5 1 0.5h0.29297l-0.20703 0.207c-0.39174 0.3918-0.54939 0.8647-0.35352 1.0606s0.66881 0.038 1.0606-0.3535l0.20703-0.2071v0.293c0 0.554 0.223 1 0.5 1s0.5-0.446 0.5-1v-0.293l0.20703 0.2071c0.39174 0.3917 0.86468 0.5494 1.0606 0.3535 0.19587-0.1959 0.0382-0.6688-0.35352-1.0606l-0.20703-0.207h0.29297c0.554 0 1-0.223 1-0.5s-0.446-0.5-1-0.5h-0.29297l0.20703-0.207c0.39174-0.3918 0.54939-0.8647 0.35352-1.0606-0.19587-0.1958-0.66881-0.038-1.0606 0.3535l-0.20703 0.2071v-0.293c0-0.554-0.223-1-0.5-1zm8-5c-0.277 0-0.5 0.446-0.5 1v0.293l-0.20703-0.2071c-0.39174-0.3917-0.86468-0.5493-1.0606-0.3535-0.19587 0.1959-0.0382 0.6688 0.35352 1.0606l0.20703 0.207h-0.29297c-0.554 0-1 0.223-1 0.5s0.446 0.5 1 0.5h0.29297l-0.20703 0.207c-0.39174 0.3918-0.54939 0.8647-0.35352 1.0606s0.66881 0.038 1.0606-0.3535l0.20703-0.2071v0.293c0 0.554 0.223 1 0.5 1s0.5-0.446 0.5-1v-0.293l0.20703 0.2071c0.39174 0.3917 0.86468 0.5494 1.0606 0.3535 0.19587-0.1959 0.0382-0.6688-0.35352-1.0606l-0.20703-0.207h0.29297c0.554 0 1-0.223 1-0.5s-0.446-0.5-1-0.5h-0.29297l0.20703-0.207c0.39174-0.3918 0.54939-0.8647 0.35352-1.0606-0.19587-0.1958-0.66881-0.038-1.0606 0.3535l-0.20703 0.2071v-0.293c0-0.554-0.223-1-0.5-1zm-6 0c-0.277 0-0.5 0.446-0.5 1v0.293l-0.20703-0.2071c-0.39174-0.3917-0.86468-0.5493-1.0606-0.3535-0.19587 0.1959-0.0382 0.6688 0.35352 1.0606l0.20703 0.207h-0.29297c-0.554 0-1 0.223-1 0.5s0.446 0.5 1 0.5h0.29297l-0.20703 0.207c-0.39174 0.3918-0.54939 0.8647-0.35352 1.0606s0.66881 0.038 1.0606-0.3535l0.20703-0.2071v0.293c0 0.554 0.223 1 0.5 1s0.5-0.446 0.5-1v-0.293l0.20703 0.2071c0.39174 0.3917 0.86468 0.5494 1.0606 0.3535 0.19587-0.1959 0.0382-0.6688-0.35352-1.0606l-0.20703-0.207h0.29297c0.554 0 1-0.223 1-0.5s-0.446-0.5-1-0.5h-0.29297l0.20703-0.207c0.39174-0.3918 0.54939-0.8647 0.35352-1.0606-0.19587-0.1958-0.66881-0.038-1.0606 0.3535l-0.20703 0.2071v-0.293c0-0.554-0.223-1-0.5-1zm2.5-12c-3.2637 0-6.1985 1.9876-7.416 5.0156-3.1442 0.2186-5.5834 2.8326-5.584 5.9844 0 3.1615 2.4483 5.7416 5.5508 5.9727l1.1387-1.9727h-0.68945c-2.2091 0-4-1.7909-4-4s1.7909-4 4-4c0.36119 0.001 0.72057 0.051 1.0684 0.1484 0.4232-2.9516 2.9498-5.1446 5.9316-5.1484 2.8668 0 5.3313 2.0325 5.8828 4.8457 0.76276-0.5481 1.6779-0.8438 2.6172-0.8457 2.4853 0 4.5 2.0147 4.5 4.5s-2.0147 4.5-4.5 4.5h-0.5l-1.1523 2h1.6523c3.5898 0 6.5-2.9101 6.5-6.5 0-3.5898-2.9102-6.5-6.5-6.5-0.49867 0-0.99543 0.062-1.4805 0.1777-1.399-2.5722-4.0915-4.1747-7.0195-4.1777z"
        transform="translate(0 -1020.4)"/>
    </svg>
    <svg fill="#black" height="64" width="64" viewBox="0 0 31.999999 31.999998"
         id="17">
      <path
        d="m16.5 1044.4c-0.277 0-0.5 0.446-0.5 1v0.293l-0.20703-0.2071c-0.39174-0.3917-0.86468-0.5493-1.0606-0.3535-0.19587 0.1959-0.0382 0.6688 0.35352 1.0606l0.20703 0.207h-0.29297c-0.554 0-1 0.223-1 0.5s0.446 0.5 1 0.5h0.29297l-0.20703 0.207c-0.39174 0.3918-0.54939 0.8647-0.35352 1.0606s0.66881 0.038 1.0606-0.3535l0.20703-0.2071v0.293c0 0.554 0.223 1 0.5 1s0.5-0.446 0.5-1v-0.293l0.20703 0.2071c0.39174 0.3917 0.86468 0.5494 1.0606 0.3535 0.19587-0.1959 0.0382-0.6688-0.35352-1.0606l-0.20703-0.207h0.29297c0.554 0 1-0.223 1-0.5s-0.446-0.5-1-0.5h-0.29297l0.20703-0.207c0.39174-0.3918 0.54939-0.8647 0.35352-1.0606-0.19587-0.1958-0.66881-0.038-1.0606 0.3535l-0.20703 0.2071v-0.293c0-0.554-0.223-1-0.5-1zm-6 0c-0.277 0-0.5 0.446-0.5 1v0.293l-0.20703-0.2071c-0.39174-0.3917-0.86468-0.5493-1.0606-0.3535-0.19587 0.1959-0.0382 0.6688 0.35352 1.0606l0.20703 0.207h-0.29297c-0.554 0-1 0.223-1 0.5s0.446 0.5 1 0.5h0.29297l-0.20703 0.207c-0.39174 0.3918-0.54939 0.8647-0.35352 1.0606s0.66881 0.038 1.0606-0.3535l0.20703-0.2071v0.293c0 0.554 0.223 1 0.5 1s0.5-0.446 0.5-1v-0.293l0.20703 0.2071c0.39174 0.3917 0.86468 0.5494 1.0606 0.3535 0.19587-0.1959 0.0382-0.6688-0.35352-1.0606l-0.20703-0.207h0.29297c0.554 0 1-0.223 1-0.5s-0.446-0.5-1-0.5h-0.29297l0.20703-0.207c0.39174-0.3918 0.54939-0.8647 0.35352-1.0606-0.19587-0.1958-0.66881-0.038-1.0606 0.3535l-0.20703 0.2071v-0.293c0-0.554-0.223-1-0.5-1zm8-5c-0.277 0-0.5 0.446-0.5 1v0.293l-0.20703-0.2071c-0.39174-0.3917-0.86468-0.5493-1.0606-0.3535-0.19587 0.1959-0.0382 0.6688 0.35352 1.0606l0.20703 0.207h-0.29297c-0.554 0-1 0.223-1 0.5s0.446 0.5 1 0.5h0.29297l-0.20703 0.207c-0.39174 0.3918-0.54939 0.8647-0.35352 1.0606s0.66881 0.038 1.0606-0.3535l0.20703-0.2071v0.293c0 0.554 0.223 1 0.5 1s0.5-0.446 0.5-1v-0.293l0.20703 0.2071c0.39174 0.3917 0.86468 0.5494 1.0606 0.3535 0.19587-0.1959 0.0382-0.6688-0.35352-1.0606l-0.20703-0.207h0.29297c0.554 0 1-0.223 1-0.5s-0.446-0.5-1-0.5h-0.29297l0.20703-0.207c0.39174-0.3918 0.54939-0.8647 0.35352-1.0606-0.19587-0.1958-0.66881-0.038-1.0606 0.3535l-0.20703 0.2071v-0.293c0-0.554-0.223-1-0.5-1zm-6 0c-0.277 0-0.5 0.446-0.5 1v0.293l-0.20703-0.2071c-0.39174-0.3917-0.86468-0.5493-1.0606-0.3535-0.19587 0.1959-0.0382 0.6688 0.35352 1.0606l0.20703 0.207h-0.29297c-0.554 0-1 0.223-1 0.5s0.446 0.5 1 0.5h0.29297l-0.20703 0.207c-0.39174 0.3918-0.54939 0.8647-0.35352 1.0606s0.66881 0.038 1.0606-0.3535l0.20703-0.2071v0.293c0 0.554 0.223 1 0.5 1s0.5-0.446 0.5-1v-0.293l0.20703 0.2071c0.39174 0.3917 0.86468 0.5494 1.0606 0.3535 0.19587-0.1959 0.0382-0.6688-0.35352-1.0606l-0.20703-0.207h0.29297c0.554 0 1-0.223 1-0.5s-0.446-0.5-1-0.5h-0.29297l0.20703-0.207c0.39174-0.3918 0.54939-0.8647 0.35352-1.0606-0.19587-0.1958-0.66881-0.038-1.0606 0.3535l-0.20703 0.2071v-0.293c0-0.554-0.223-1-0.5-1zm2.5-12c-3.2637 0-6.1985 1.9876-7.416 5.0156-3.1442 0.2186-5.5834 2.8326-5.584 5.9844 0 3.1615 2.4483 5.7416 5.5508 5.9727l1.1387-1.9727h-0.68945c-2.2091 0-4-1.7909-4-4s1.7909-4 4-4c0.36119 0.001 0.72057 0.051 1.0684 0.1484 0.4232-2.9516 2.9498-5.1446 5.9316-5.1484 2.8668 0 5.3313 2.0325 5.8828 4.8457 0.76276-0.5481 1.6779-0.8438 2.6172-0.8457 2.4853 0 4.5 2.0147 4.5 4.5s-2.0147 4.5-4.5 4.5h-0.5l-1.1523 2h1.6523c3.5898 0 6.5-2.9101 6.5-6.5 0-3.5898-2.9102-6.5-6.5-6.5-0.49867 0-0.99543 0.062-1.4805 0.1777-1.399-2.5722-4.0915-4.1747-7.0195-4.1777z"
        transform="translate(0 -1020.4)"/>
    </svg>
    <svg fill="#black" height="64" width="64" viewBox="0 0 31.999999 31.999998"
         id="18">
      <path
        d="m15 1027.4c-3.2637 0-6.1985 1.9876-7.416 5.0156-3.1442 0.2186-5.5834 2.8326-5.584 5.9844 0 3.1615 2.4483 5.7416 5.5508 5.9727l1.1387-1.9727h-0.68945c-2.2091 0-4-1.7909-4-4s1.7909-4 4-4c0.36119 0 0.72057 0.051 1.0684 0.1484 0.4232-2.9516 2.9498-5.1446 5.9316-5.1484 2.8668 0 5.3313 2.0325 5.8828 4.8457 0.76276-0.5481 1.6779-0.8438 2.6172-0.8457 2.4853 0 4.5 2.0147 4.5 4.5s-2.0147 4.5-4.5 4.5h-0.5l-1.1523 2h1.6523c3.5898 0 6.5-2.9101 6.5-6.5 0-3.5898-2.9102-6.5-6.5-6.5-0.49867 0-0.99543 0.062-1.4805 0.1777-1.399-2.5722-4.0915-4.1747-7.0195-4.1777zm5.4991 13.135c0.47978 0.277 0.64303 0.8863 0.36603 1.3661l-1 1.732c-0.277 0.4798-0.88625 0.6431-1.366 0.3661-0.47978-0.277-0.64303-0.8863-0.36603-1.3661l1-1.732c0.277-0.4798 0.88625-0.6431 1.366-0.3661zm-4.9983 3.2662c0.47978 0.277 0.64303 0.8863 0.36603 1.3661l-1 1.732c-0.277 0.4798-0.88625 0.6431-1.366 0.3661-0.47978-0.277-0.64302-0.8863-0.36602-1.3661l1-1.732c0.277-0.4798 0.88624-0.6431 1.366-0.3661zm-3.0018-3.2662c0.47978 0.277 0.64303 0.8863 0.36603 1.3661l-1 1.732c-0.277 0.4798-0.88625 0.643-1.366 0.366-0.47977-0.277-0.64302-0.8862-0.36602-1.366l1-1.732c0.277-0.4798 0.88625-0.6431 1.366-0.3661z"
        transform="translate(0 -1020.4)"/>
    </svg>
    <svg fill="#black" height="64" width="64" viewBox="0 0 31.999999 31.999998"
         id="19">
      <path
        d="m15 1027.4c-3.2637 0-6.1985 1.9876-7.416 5.0156-3.1442 0.2186-5.5834 2.8326-5.584 5.9844 0 3.1615 2.4483 5.7416 5.5508 5.9727l1.1387-1.9727h-0.68945c-2.2091 0-4-1.7909-4-4s1.7909-4 4-4c0.36119 0 0.72057 0.051 1.0684 0.1484 0.4232-2.9516 2.9498-5.1446 5.9316-5.1484 2.8668 0 5.3313 2.0325 5.8828 4.8457 0.76276-0.5481 1.6779-0.8438 2.6172-0.8457 2.4853 0 4.5 2.0147 4.5 4.5s-2.0147 4.5-4.5 4.5h-0.5l-1.1523 2h1.6523c3.5898 0 6.5-2.9101 6.5-6.5 0-3.5898-2.9102-6.5-6.5-6.5-0.49867 0-0.99543 0.062-1.4805 0.1777-1.399-2.5722-4.0915-4.1747-7.0195-4.1777zm-2.5009 13.135c0.47978 0.277 0.64303 0.8863 0.36603 1.3661l-1 1.732c-0.277 0.4798-0.88625 0.643-1.366 0.366-0.47977-0.277-0.64302-0.8862-0.36602-1.366l1-1.732c0.277-0.4798 0.88625-0.6431 1.366-0.3661zm4 0c0.47978 0.277 0.64303 0.8863 0.36603 1.3661l-1 1.732c-0.277 0.4798-0.88625 0.6431-1.366 0.3661-0.47978-0.277-0.64302-0.8863-0.36602-1.3661l1-1.732c0.277-0.4798 0.88624-0.6431 1.366-0.3661zm4 0c0.47978 0.277 0.64303 0.8863 0.36603 1.3661l-1 1.732c-0.277 0.4798-0.88625 0.6431-1.366 0.3661-0.47978-0.277-0.64303-0.8863-0.36603-1.3661l1-1.732c0.277-0.4798 0.88625-0.6431 1.366-0.3661zm-7.9983 5.2663c0.47978 0.277 0.64303 0.8862 0.36603 1.366l-1 1.732c-0.277 0.4798-0.88625 0.6431-1.366 0.3661-0.47978-0.277-0.64302-0.8863-0.36602-1.3661l1-1.732c0.277-0.4798 0.88624-0.643 1.366-0.366zm4 0c0.47978 0.277 0.64303 0.8862 0.36603 1.366l-1 1.732c-0.277 0.4798-0.88625 0.6431-1.366 0.3661-0.47978-0.277-0.64302-0.8863-0.36602-1.3661l1-1.732c0.277-0.4798 0.88624-0.643 1.366-0.366z"
        transform="translate(0 -1020.4)"/>
    </svg>
    <svg fill="#black" height="64" width="64" viewBox="0 0 31.999999 31.999998"
         id="20">
      <path
        d="m15 1027.4c-3.2637 0-6.1985 1.9876-7.416 5.0156-3.1442 0.2186-5.5834 2.8326-5.584 5.9844 0 3.1615 2.4483 5.7416 5.5508 5.9727l1.1387-1.9727h-0.68945c-2.2091 0-4-1.7909-4-4s1.7909-4 4-4c0.36119 0 0.72057 0.051 1.0684 0.1484 0.4232-2.9516 2.9498-5.1446 5.9316-5.1484 2.8668 0 5.3313 2.0325 5.8828 4.8457 0.76276-0.5481 1.6779-0.8438 2.6172-0.8457 2.4853 0 4.5 2.0147 4.5 4.5s-2.0147 4.5-4.5 4.5h-0.5l-1.1523 2h1.6523c3.5898 0 6.5-2.9101 6.5-6.5 0-3.5898-2.9102-6.5-6.5-6.5-0.49867 0-0.99543 0.062-1.4805 0.1777-1.399-2.5722-4.0915-4.1747-7.0195-4.1777zm-2.5009 13.135c0.47978 0.277 0.64303 0.8863 0.36603 1.3661l-1 1.732c-0.277 0.4798-0.88625 0.643-1.366 0.366-0.47977-0.277-0.64302-0.8862-0.36602-1.366l1-1.732c0.277-0.4798 0.88625-0.6431 1.366-0.3661zm4 0c0.47978 0.277 0.64303 0.8863 0.36603 1.3661l-1 1.732c-0.277 0.4798-0.88625 0.6431-1.366 0.3661-0.47978-0.277-0.64302-0.8863-0.36602-1.3661l1-1.732c0.277-0.4798 0.88624-0.6431 1.366-0.3661zm4 0c0.47978 0.277 0.64303 0.8863 0.36603 1.3661l-1 1.732c-0.277 0.4798-0.88625 0.6431-1.366 0.3661-0.47978-0.277-0.64303-0.8863-0.36603-1.3661l1-1.732c0.277-0.4798 0.88625-0.6431 1.366-0.3661zm-7.9983 5.2663c0.47978 0.277 0.64303 0.8862 0.36603 1.366l-1 1.732c-0.277 0.4798-0.88625 0.6431-1.366 0.3661-0.47978-0.277-0.64302-0.8863-0.36602-1.3661l1-1.732c0.277-0.4798 0.88624-0.643 1.366-0.366zm4 0c0.47978 0.277 0.64303 0.8862 0.36603 1.366l-1 1.732c-0.277 0.4798-0.88625 0.6431-1.366 0.3661-0.47978-0.277-0.64302-0.8863-0.36602-1.3661l1-1.732c0.277-0.4798 0.88624-0.643 1.366-0.366z"
        transform="translate(0 -1020.4)"/>
    </svg>
    <svg fill="#black" height="64" width="64" viewBox="0 0 31.999999 31.999998"
         id="21">
      <path
        d="m15 1027.4c-3.2637 0-6.1985 1.9876-7.416 5.0156-3.1442 0.2186-5.5834 2.8326-5.584 5.9844 0 3.1615 2.4483 5.7416 5.5508 5.9727l1.1387-1.9727h-0.68945c-2.2091 0-4-1.7909-4-4s1.7909-4 4-4c0.36119 0.001 0.72057 0.051 1.0684 0.1484 0.4232-2.9516 2.9498-5.1446 5.9316-5.1484 2.8668 0 5.3313 2.0325 5.8828 4.8457 0.76276-0.5481 1.6779-0.8438 2.6172-0.8457 2.4853 0 4.5 2.0147 4.5 4.5s-2.0147 4.5-4.5 4.5h-0.5l-1.1523 2h1.6523c3.5898 0 6.5-2.9101 6.5-6.5 0-3.5898-2.9102-6.5-6.5-6.5-0.49867 0-0.99543 0.062-1.4805 0.1777-1.399-2.5722-4.0915-4.1747-7.0195-4.1777zm-1 11-2 6h2l-1 5 5-7h-3l2-4z"
        transform="translate(0 -1020.4)"/>
    </svg>
    <svg fill="#black" height="64" width="64" viewBox="0 0 31.999999 31.999998"
         id="22">
      <path
        d="m18.5 1038.4c-0.277 0-0.5 0.446-0.5 1v1.293l-0.91406-0.9141c-0.39174-0.3917-0.86468-0.5494-1.0606-0.3535-0.19587 0.1959-0.0382 0.6688 0.35352 1.0605l0.91406 0.9141h-1.293c-0.554 0-1 0.223-1 0.5s0.446 0.5 1 0.5h1.293l-0.91406 0.9141c-0.39174 0.3917-0.54939 0.8646-0.35352 1.0605s0.66881 0.038 1.0606-0.3535l0.91406-0.9141v1.293c0 0.554 0.223 1 0.5 1s0.5-0.446 0.5-1v-1.293l0.91406 0.9141c0.39174 0.3917 0.86468 0.5494 1.0606 0.3535 0.19587-0.1959 0.0382-0.6688-0.35352-1.0605l-0.91406-0.9141h1.293c0.554 0 1-0.223 1-0.5s-0.446-0.5-1-0.5h-1.293l0.91406-0.9141c0.39174-0.3917 0.54939-0.8646 0.35352-1.0605s-0.66881-0.038-1.0606 0.3535l-0.91406 0.9141v-1.293c0-0.554-0.223-1-0.5-1zm-6.5 2s-3 4.3432-3 6c0 1.6569 1.3432 3 3 3s3-1.3431 3-3c0-1.6568-3-6-3-6zm0 3s1 2.4477 1 3-0.44772 1-1 1-1-0.4477-1-1 1-3 1-3zm3-16c-3.2637 0-6.1985 1.9876-7.416 5.0156-3.1442 0.2186-5.5834 2.8326-5.584 5.9844 0 3.1615 2.4483 5.7416 5.5508 5.9727l1.1387-1.9727h-0.68945c-2.2091 0-4-1.7909-4-4s1.7909-4 4-4c0.36119 0.001 0.72057 0.051 1.0684 0.1484 0.4232-2.9516 2.9498-5.1446 5.9316-5.1484 2.8668 0 5.3313 2.0325 5.8828 4.8457 0.76276-0.5481 1.6779-0.8438 2.6172-0.8457 2.4853 0 4.5 2.0147 4.5 4.5s-2.0147 4.5-4.5 4.5h-0.5l-1.1523 2h1.6523c3.5898 0 6.5-2.9101 6.5-6.5 0-3.5898-2.9102-6.5-6.5-6.5-0.49867 0-0.99543 0.062-1.4805 0.1777-1.399-2.5722-4.0915-4.1747-7.0195-4.1777z"
        transform="translate(0 -1020.4)"/>
    </svg>
    <svg fill="#black" height="64" width="64" viewBox="0 0 31.999999 31.999998"
         id="23">
      <path
        d="m18.5 1038.4c-0.277 0-0.5 0.446-0.5 1v1.293l-0.91406-0.9141c-0.39174-0.3917-0.86468-0.5494-1.0606-0.3535-0.19587 0.1959-0.0382 0.6688 0.35352 1.0605l0.91406 0.9141h-1.293c-0.554 0-1 0.223-1 0.5s0.446 0.5 1 0.5h1.293l-0.91406 0.9141c-0.39174 0.3917-0.54939 0.8646-0.35352 1.0605s0.66881 0.038 1.0606-0.3535l0.91406-0.9141v1.293c0 0.554 0.223 1 0.5 1s0.5-0.446 0.5-1v-1.293l0.91406 0.9141c0.39174 0.3917 0.86468 0.5494 1.0606 0.3535 0.19587-0.1959 0.0382-0.6688-0.35352-1.0605l-0.91406-0.9141h1.293c0.554 0 1-0.223 1-0.5s-0.446-0.5-1-0.5h-1.293l0.91406-0.9141c0.39174-0.3917 0.54939-0.8646 0.35352-1.0605s-0.66881-0.038-1.0606 0.3535l-0.91406 0.9141v-1.293c0-0.554-0.223-1-0.5-1zm-6.5 2s-3 4.3432-3 6c0 1.6569 1.3432 3 3 3s3-1.3431 3-3c0-1.6568-3-6-3-6zm0 3s1 2.4477 1 3-0.44772 1-1 1-1-0.4477-1-1 1-3 1-3zm3-16c-3.2637 0-6.1985 1.9876-7.416 5.0156-3.1442 0.2186-5.5834 2.8326-5.584 5.9844 0 3.1615 2.4483 5.7416 5.5508 5.9727l1.1387-1.9727h-0.68945c-2.2091 0-4-1.7909-4-4s1.7909-4 4-4c0.36119 0.001 0.72057 0.051 1.0684 0.1484 0.4232-2.9516 2.9498-5.1446 5.9316-5.1484 2.8668 0 5.3313 2.0325 5.8828 4.8457 0.76276-0.5481 1.6779-0.8438 2.6172-0.8457 2.4853 0 4.5 2.0147 4.5 4.5s-2.0147 4.5-4.5 4.5h-0.5l-1.1523 2h1.6523c3.5898 0 6.5-2.9101 6.5-6.5 0-3.5898-2.9102-6.5-6.5-6.5-0.49867 0-0.99543 0.062-1.4805 0.1777-1.399-2.5722-4.0915-4.1747-7.0195-4.1777z"
        transform="translate(0 -1020.4)"/>
    </svg>
    <svg fill="#black" height="64" width="64" viewBox="0 0 31.999999 31.999998"
         id="24">
      <path
        d="m18.5 1038.4c-0.277 0-0.5 0.446-0.5 1v1.293l-0.91406-0.9141c-0.39174-0.3917-0.86468-0.5494-1.0606-0.3535-0.19587 0.1959-0.0382 0.6688 0.35352 1.0605l0.91406 0.9141h-1.293c-0.554 0-1 0.223-1 0.5s0.446 0.5 1 0.5h1.293l-0.91406 0.9141c-0.39174 0.3917-0.54939 0.8646-0.35352 1.0605s0.66881 0.038 1.0606-0.3535l0.91406-0.9141v1.293c0 0.554 0.223 1 0.5 1s0.5-0.446 0.5-1v-1.293l0.91406 0.9141c0.39174 0.3917 0.86468 0.5494 1.0606 0.3535 0.19587-0.1959 0.0382-0.6688-0.35352-1.0605l-0.91406-0.9141h1.293c0.554 0 1-0.223 1-0.5s-0.446-0.5-1-0.5h-1.293l0.91406-0.9141c0.39174-0.3917 0.54939-0.8646 0.35352-1.0605s-0.66881-0.038-1.0606 0.3535l-0.91406 0.9141v-1.293c0-0.554-0.223-1-0.5-1zm-6.5 2s-3 4.3432-3 6c0 1.6569 1.3432 3 3 3s3-1.3431 3-3c0-1.6568-3-6-3-6zm0 3s1 2.4477 1 3-0.44772 1-1 1-1-0.4477-1-1 1-3 1-3zm3-16c-3.2637 0-6.1985 1.9876-7.416 5.0156-3.1442 0.2186-5.5834 2.8326-5.584 5.9844 0 3.1615 2.4483 5.7416 5.5508 5.9727l1.1387-1.9727h-0.68945c-2.2091 0-4-1.7909-4-4s1.7909-4 4-4c0.36119 0.001 0.72057 0.051 1.0684 0.1484 0.4232-2.9516 2.9498-5.1446 5.9316-5.1484 2.8668 0 5.3313 2.0325 5.8828 4.8457 0.76276-0.5481 1.6779-0.8438 2.6172-0.8457 2.4853 0 4.5 2.0147 4.5 4.5s-2.0147 4.5-4.5 4.5h-0.5l-1.1523 2h1.6523c3.5898 0 6.5-2.9101 6.5-6.5 0-3.5898-2.9102-6.5-6.5-6.5-0.49867 0-0.99543 0.062-1.4805 0.1777-1.399-2.5722-4.0915-4.1747-7.0195-4.1777z"
        transform="translate(0 -1020.4)"/>
    </svg>
    <svg fill="#black" height="64" width="64" viewBox="0 0 31.999999 31.999998"
         id="25">
      <path
        d="m15 7c-3.264 0-6.1985 1.9876-7.416 5.016-3.1442 0.218-5.5833 2.832-5.584 5.984 0 3.1615 2.4483 5.7416 5.5508 5.9727l1.1387-1.973h-0.6895c-2.2091 0-4-1.7909-4-4s1.7909-4 4-4c0.36119 0.001 0.72057 0.051 1.0684 0.1484 0.4232-2.9516 2.9498-5.1446 5.9316-5.1484 2.8668 0 5.3313 2.0325 5.8828 4.8457 0.76276-0.5481 1.6779-0.8438 2.6172-0.8457 2.4853 0 4.5 2.0147 4.5 4.5s-2.0147 4.5-4.5 4.5h-0.5l-1.1523 2h1.6523c3.5898 0 6.5-2.9101 6.5-6.5 0-3.5898-2.9102-6.5-6.5-6.5-0.49867 0-0.99543 0.062-1.4805 0.1777-1.399-2.5725-4.092-4.175-7.02-4.178zm-2.5002 16c-0.277 0-0.5 0.446-0.5 1v0.293l-0.20703-0.2071c-0.39174-0.3917-0.86468-0.5493-1.0606-0.3535-0.19587 0.1959-0.0382 0.6688 0.35352 1.0606l0.207 0.207h-0.293c-0.554 0-1 0.223-1 0.5s0.446 0.5 1 0.5h0.29297l-0.20703 0.207c-0.39174 0.3918-0.54939 0.8647-0.35352 1.0606s0.66881 0.038 1.0606-0.3535l0.20703-0.2071v0.293c0 0.554 0.223 1 0.5 1s0.5-0.446 0.5-1v-0.293l0.20703 0.2071c0.39174 0.3917 0.86468 0.5494 1.0606 0.3535 0.19587-0.1959 0.0382-0.6688-0.35352-1.0606l-0.207-0.207h0.29297c0.554 0 1-0.223 1-0.5s-0.446-0.5-1-0.5h-0.29297l0.20703-0.207c0.39174-0.3918 0.54939-0.8647 0.35352-1.0606-0.19587-0.1958-0.66881-0.038-1.0606 0.3535l-0.20703 0.2071v-0.293c0-0.554-0.223-1-0.5-1zm6-3c-0.277 0-0.5 0.446-0.5 1v0.293l-0.20703-0.2071c-0.39174-0.3917-0.86468-0.5493-1.0606-0.3535-0.19587 0.1959-0.0382 0.6688 0.35352 1.0606l0.207 0.207h-0.293c-0.554 0-1 0.223-1 0.5s0.446 0.5 1 0.5h0.29297l-0.20703 0.207c-0.39174 0.3918-0.54939 0.8647-0.35352 1.0606s0.66881 0.038 1.0606-0.3535l0.20703-0.2071v0.293c0 0.554 0.223 1 0.5 1s0.5-0.446 0.5-1v-0.293l0.20703 0.2071c0.39174 0.3917 0.86469 0.5494 1.0606 0.3535 0.19587-0.1959 0.0382-0.6688-0.35353-1.0606l-0.207-0.207h0.29297c0.55401 0 1-0.223 1-0.5s-0.446-0.5-1-0.5h-0.29297l0.20703-0.207c0.39175-0.3918 0.5494-0.8647 0.35353-1.0606-0.19587-0.1958-0.66882-0.038-1.0606 0.3535l-0.20703 0.2071v-0.293c0-0.554-0.223-1-0.5-1z"/>
    </svg>
    <svg fill="#black" height="64" width="64" viewBox="0 0 31.999999 31.999998"
         id="26">
      <path
        d="m15 1027.4c-3.2637 0-6.1985 1.9876-7.416 5.0156-3.1442 0.2186-5.5834 2.8326-5.584 5.9844 0 3.1615 2.4483 5.7416 5.5508 5.9727l1.1387-1.9727h-0.68945c-2.2091 0-4-1.7909-4-4s1.7909-4 4-4c0.36119 0.001 0.72057 0.051 1.0684 0.1484 0.4232-2.9516 2.9498-5.1446 5.9316-5.1484 2.8668 0 5.3313 2.0325 5.8828 4.8457 0.76276-0.5481 1.6779-0.8438 2.6172-0.8457 2.4853 0 4.5 2.0147 4.5 4.5s-2.0147 4.5-4.5 4.5h-0.5l-1.1523 2h1.6523c3.5898 0 6.5-2.9101 6.5-6.5 0-3.5898-2.9102-6.5-6.5-6.5-0.49867 0-0.99543 0.062-1.4805 0.1777-1.399-2.5722-4.0915-4.1747-7.0195-4.1777zm0.5 13c-0.277 0-0.5 0.446-0.5 1v1.293l-0.91406-0.9141c-0.39174-0.3917-0.86468-0.5494-1.0606-0.3535-0.19587 0.1959-0.0382 0.6688 0.35352 1.0605l0.91406 0.9141h-1.293c-0.554 0-1 0.223-1 0.5s0.446 0.5 1 0.5h1.293l-0.91406 0.9141c-0.39174 0.3917-0.54939 0.8646-0.35352 1.0605s0.66881 0.038 1.0606-0.3535l0.91406-0.9141v1.293c0 0.554 0.223 1 0.5 1s0.5-0.446 0.5-1v-1.293l0.91406 0.9141c0.39174 0.3917 0.86468 0.5494 1.0606 0.3535 0.19587-0.1959 0.0382-0.6688-0.35352-1.0605l-0.91406-0.9141h1.293c0.554 0 1-0.223 1-0.5s-0.446-0.5-1-0.5h-1.293l0.91406-0.9141c0.39174-0.3917 0.54939-0.8646 0.35352-1.0605s-0.66881-0.038-1.0606 0.3535l-0.91406 0.9141v-1.293c0-0.554-0.223-1-0.5-1z"
        transform="translate(0 -1020.4)"/>
    </svg>
    <svg fill="#black" height="64" width="64" viewBox="0 0 31.999999 31.999998"
         id="27">
      <path
        d="m15 1027.4c-3.2637 0-6.1985 1.9876-7.416 5.0156-3.1442 0.2186-5.5834 2.8326-5.584 5.9844 0 3.1615 2.4483 5.7416 5.5508 5.9727l1.1387-1.9727h-0.68945c-2.2091 0-4-1.7909-4-4s1.7909-4 4-4c0.36119 0.001 0.72057 0.051 1.0684 0.1484 0.4232-2.9516 2.9498-5.1446 5.9316-5.1484 2.8668 0 5.3313 2.0325 5.8828 4.8457 0.76276-0.5481 1.6779-0.8438 2.6172-0.8457 2.4853 0 4.5 2.0147 4.5 4.5s-2.0147 4.5-4.5 4.5h-0.5l-1.1523 2h1.6523c3.5898 0 6.5-2.9101 6.5-6.5 0-3.5898-2.9102-6.5-6.5-6.5-0.49867 0-0.99543 0.062-1.4805 0.1777-1.399-2.5722-4.0915-4.1747-7.0195-4.1777zm0.5 13c-0.277 0-0.5 0.446-0.5 1v1.293l-0.91406-0.9141c-0.39174-0.3917-0.86468-0.5494-1.0606-0.3535-0.19587 0.1959-0.0382 0.6688 0.35352 1.0605l0.91406 0.9141h-1.293c-0.554 0-1 0.223-1 0.5s0.446 0.5 1 0.5h1.293l-0.91406 0.9141c-0.39174 0.3917-0.54939 0.8646-0.35352 1.0605s0.66881 0.038 1.0606-0.3535l0.91406-0.9141v1.293c0 0.554 0.223 1 0.5 1s0.5-0.446 0.5-1v-1.293l0.91406 0.9141c0.39174 0.3917 0.86468 0.5494 1.0606 0.3535 0.19587-0.1959 0.0382-0.6688-0.35352-1.0605l-0.91406-0.9141h1.293c0.554 0 1-0.223 1-0.5s-0.446-0.5-1-0.5h-1.293l0.91406-0.9141c0.39174-0.3917 0.54939-0.8646 0.35352-1.0605s-0.66881-0.038-1.0606 0.3535l-0.91406 0.9141v-1.293c0-0.554-0.223-1-0.5-1z"
        transform="translate(0 -1020.4)"/>
    </svg>
    <svg fill="#vlack" height="64" width="64" viewBox="0 0 31.999999 31.999996"
         id="28">
      <path
        d="m16.001 1029.4c-0.2706 0-0.50984 0.1016-0.70117 0.293l-2.9727 2.9687c-0.98171 0.9425 0.47156 2.3958 1.4141 1.4141l1.2598-1.252v9.5762c0 0.554 0.446 1 1 1s0.99883-0.446 0.99883-1v-9.5762l1.2598 1.252c0.9425 0.9817 2.3958-0.4716 1.4141-1.4141l-2.9727-2.9687c-0.19133-0.1914-0.42941-0.2971-0.70001-0.293z"
        transform="translate(0 -1020.4)"/>
    </svg>


  </defs>
</svg>
